<svg xmlns="http://www.w3.org/2000/svg" width="1500" height="2100" viewBox="0 0 1500 2100">
  <defs>
    <style>
      .bg { fill: #f5f4ef; }
      .panel { fill: #fff; stroke: #202020; stroke-width: 4; }
      .door { fill: #f7f9fb; stroke: #5a5a5a; stroke-width: 2; stroke-dasharray: 8 6; }
      .plate { fill: #fcfcfc; stroke: #8a8a8a; stroke-width: 1.8; stroke-dasharray: 10 8; }
      .rail { stroke: #7b7b7b; stroke-width: 2; }
      .part { stroke: #202020; stroke-width: 1.8; rx: 6; ry: 6; }
      .pwr { fill: #fde7c7; }
      .drv { fill: #dcecff; }
      .io { fill: #dff3e7; }
      .saf { fill: #fff2bf; }
      .term { fill: #efe3fb; }
      .ctrl { fill: #dbe8f6; }
      .title { font-family: Arial, sans-serif; font-size: 34px; font-weight: bold; fill: #111; }
      .sub { font-family: Arial, sans-serif; font-size: 19px; fill: #333; }
      .txt { font-family: Arial, sans-serif; font-size: 16px; fill: #1f1f1f; }
      .sm { font-family: Arial, sans-serif; font-size: 14px; fill: #333; }
      .tiny { font-family: Arial, sans-serif; font-size: 12px; fill: #444; }
      .dim { stroke: #707070; stroke-width: 1.5; marker-start: url(#arrow); marker-end: url(#arrow); }
      .tick { stroke: #707070; stroke-width: 1.5; }
    </style>
    <marker id="arrow" viewBox="0 0 10 10" refX="5" refY="5" markerWidth="6" markerHeight="6" orient="auto-start-reverse">
      <path d="M 0 0 L 10 5 L 0 10 z" fill="#707070"/>
    </marker>
  </defs>

  <rect class="bg" x="0" y="0" width="1500" height="2100"/>

  <text class="title" x="750" y="60" text-anchor="middle">GFB60-30RE Ana Pano - Duzenlenmis On Gorunus</text>
  <text class="sub" x="750" y="95" text-anchor="middle">1200 x 2000 x 600 mm / NC300 kapak montajli / U2 operator terminali harici saha tipi</text>

  <!-- overall cabinet -->
  <rect class="panel" x="120" y="140" width="1200" height="1800" rx="8"/>
  <rect class="door" x="150" y="170" width="1140" height="1740" rx="6"/>
  <rect class="plate" x="220" y="240" width="1000" height="1620"/>

  <text class="txt" x="230" y="228">Montaj Plakasi</text>
  <text class="txt" x="1040" y="195">Pano Kapagi</text>

  <!-- dimensions -->
  <line class="dim" x1="120" y1="105" x2="1320" y2="105"/>
  <line class="tick" x1="120" y1="125" x2="120" y2="80"/>
  <line class="tick" x1="1320" y1="125" x2="1320" y2="80"/>
  <text class="txt" x="720" y="98" text-anchor="middle">1200 mm</text>

  <line class="dim" x1="80" y1="140" x2="80" y2="1940"/>
  <line class="tick" x1="100" y1="140" x2="50" y2="140"/>
  <line class="tick" x1="100" y1="1940" x2="50" y2="1940"/>
  <text class="txt" x="60" y="1040" transform="rotate(-90 60,1040)" text-anchor="middle">2000 mm</text>

  <!-- NC300 on door -->
  <rect class="part ctrl" x="930" y="350" width="250" height="170"/>
  <rect x="965" y="385" width="150" height="84" fill="#d7e8f5" stroke="#202020" stroke-width="1.5" rx="4"/>
  <text class="txt" x="1055" y="442" text-anchor="middle">U1 NC300</text>
  <text class="sm" x="1055" y="486" text-anchor="middle">kapak montaj / dis erisim</text>

  <!-- top area -->
  <rect class="part pwr" x="260" y="300" width="70" height="80"/>
  <rect class="part pwr" x="360" y="290" width="90" height="90"/>
  <rect class="part pwr" x="490" y="285" width="130" height="95"/>
  <rect class="part term" x="1110" y="300" width="70" height="28"/>
  <text class="sm" x="295" y="345" text-anchor="middle">X1</text>
  <text class="sm" x="405" y="340" text-anchor="middle">F0</text>
  <text class="sm" x="555" y="338" text-anchor="middle">EMC1</text>
  <text class="sm" x="1145" y="319" text-anchor="middle">PE1</text>

  <!-- rail labels -->
  <line class="rail" x1="250" y1="500" x2="1190" y2="500"/>
  <line class="rail" x1="250" y1="840" x2="1190" y2="840"/>
  <line class="rail" x1="250" y1="1210" x2="1190" y2="1210"/>
  <line class="rail" x1="250" y1="1500" x2="1190" y2="1500"/>
  <text class="sm" x="1195" y="495">DIN Ray 1</text>
  <text class="sm" x="1195" y="835">DIN Ray 2</text>
  <text class="sm" x="1195" y="1205">DIN Ray 3</text>
  <text class="sm" x="1195" y="1495">DIN Ray 4</text>

  <!-- rail 1 -->
  <rect class="part pwr" x="260" y="540" width="85" height="110"/>
  <rect class="part pwr" x="365" y="540" width="65" height="110"/>
  <rect class="part pwr" x="450" y="530" width="105" height="130"/>
  <rect class="part pwr" x="580" y="548" width="18" height="78"/>
  <rect class="part pwr" x="607" y="548" width="18" height="78"/>
  <rect class="part pwr" x="634" y="548" width="18" height="78"/>
  <rect class="part saf" x="661" y="548" width="18" height="78"/>
  <rect class="part pwr" x="688" y="548" width="18" height="78"/>
  <rect class="part term" x="735" y="550" width="80" height="54"/>
  <rect class="part saf" x="835" y="550" width="62" height="54"/>
  <rect class="part saf" x="915" y="550" width="98" height="54"/>
  <text class="sm" x="302" y="602" text-anchor="middle">Q1</text>
  <text class="sm" x="397" y="602" text-anchor="middle">K1</text>
  <text class="sm" x="502" y="602" text-anchor="middle">PS1</text>
  <text class="tiny" x="589" y="592" text-anchor="middle">F2</text>
  <text class="tiny" x="616" y="592" text-anchor="middle">F3</text>
  <text class="tiny" x="643" y="592" text-anchor="middle">F4</text>
  <text class="tiny" x="670" y="592" text-anchor="middle">F5</text>
  <text class="tiny" x="697" y="592" text-anchor="middle">F6</text>
  <text class="sm" x="775" y="582" text-anchor="middle">X2</text>
  <text class="sm" x="866" y="582" text-anchor="middle">X10</text>
  <text class="sm" x="964" y="582" text-anchor="middle">X11</text>

  <!-- rail 2 -->
  <rect class="part drv" x="260" y="900" width="90" height="250"/>
  <rect class="part drv" x="370" y="900" width="70" height="250"/>
  <rect class="part drv" x="460" y="900" width="70" height="250"/>
  <rect class="part drv" x="550" y="900" width="54" height="250"/>
  <rect class="part drv" x="624" y="900" width="54" height="250"/>
  <rect class="part io" x="710" y="955" width="52" height="92"/>
  <rect class="part io" x="778" y="955" width="52" height="92"/>
  <rect class="part io" x="846" y="955" width="52" height="92"/>
  <rect class="part io" x="914" y="955" width="52" height="92"/>
  <text class="sm" x="305" y="1030" text-anchor="middle">U41</text>
  <text class="sm" x="405" y="1030" text-anchor="middle">U42</text>
  <text class="sm" x="495" y="1030" text-anchor="middle">U43</text>
  <text class="sm" x="577" y="1030" text-anchor="middle">U44</text>
  <text class="sm" x="651" y="1030" text-anchor="middle">U45</text>
  <text class="sm" x="736" y="1008" text-anchor="middle">U50</text>
  <text class="sm" x="804" y="1008" text-anchor="middle">U51</text>
  <text class="sm" x="872" y="1008" text-anchor="middle">U52</text>
  <text class="sm" x="940" y="1008" text-anchor="middle">U53</text>

  <!-- rail 3 -->
  <rect class="part term" x="260" y="1260" width="165" height="58"/>
  <rect class="part term" x="445" y="1260" width="165" height="58"/>
  <rect class="part term" x="630" y="1260" width="165" height="58"/>
  <rect class="part saf" x="825" y="1248" width="48" height="92"/>
  <rect class="part saf" x="892" y="1256" width="38" height="84"/>
  <text class="sm" x="343" y="1296" text-anchor="middle">X20</text>
  <text class="sm" x="528" y="1296" text-anchor="middle">X30</text>
  <text class="sm" x="713" y="1296" text-anchor="middle">X40</text>
  <text class="sm" x="849" y="1296" text-anchor="middle">K10</text>
  <text class="sm" x="911" y="1296" text-anchor="middle">FK1</text>

  <!-- rail 4 -->
  <rect class="part term" x="260" y="1545" width="56" height="56"/>
  <circle cx="395" cy="1573" r="18" fill="#fff2bf" stroke="#202020" stroke-width="1.8"/>
  <rect class="part pwr" x="575" y="1538" width="58" height="76"/>
  <text class="sm" x="288" y="1578" text-anchor="middle">X12</text>
  <text class="sm" x="395" y="1578" text-anchor="middle">S2</text>
  <text class="sm" x="604" y="1581" text-anchor="middle">X1</text>

  <!-- clean notes -->
  <rect x="920" y="1640" width="290" height="180" fill="#fff" stroke="#b0b0b0" stroke-width="1.5" rx="6"/>
  <text class="txt" x="945" y="1670">Temel Notlar</text>
  <text class="sm" x="945" y="1702">- U1 NC300 pano kapaginda</text>
  <text class="sm" x="945" y="1730">- disaridan servis/operator erisimi</text>
  <text class="sm" x="945" y="1758">- U2 operator paneli harici ayakli tip</text>
  <text class="sm" x="945" y="1786">- E-STOP operator paneline tasinmistir</text>

  <!-- simple legend -->
  <rect x="1235" y="620" width="150" height="170" fill="#fff" stroke="#b0b0b0" stroke-width="1.5" rx="6"/>
  <text class="sm" x="1260" y="648">Lejant</text>
  <rect class="pwr" x="1260" y="664" width="22" height="16" stroke="#202020" stroke-width="1"/>
  <text class="tiny" x="1292" y="677">Guc</text>
  <rect class="drv" x="1260" y="692" width="22" height="16" stroke="#202020" stroke-width="1"/>
  <text class="tiny" x="1292" y="705">Servo</text>
  <rect class="io" x="1260" y="720" width="22" height="16" stroke="#202020" stroke-width="1"/>
  <text class="tiny" x="1292" y="733">I/O</text>
  <rect class="saf" x="1260" y="748" width="22" height="16" stroke="#202020" stroke-width="1"/>
  <text class="tiny" x="1292" y="761">Safety</text>
  <rect class="term" x="1260" y="776" width="22" height="16" stroke="#202020" stroke-width="1"/>
  <text class="tiny" x="1292" y="789">Terminal</text>

  <text class="sm" x="120" y="2025">Dosya: Main_Panel_Front.svg</text>
  <text class="sm" x="1320" y="2025" text-anchor="end">Rev. 12.04.2026</text>
</svg>
